<svg width="256" height="256" viewBox="0 0 256 256" fill="none" xmlns="http://www.w3.org/2000/svg">
<rect width="256" height="256" fill="url(#paint0_linear_3_120)"/>
<path d="M92.9961 196.655C106.468 193.954 118.842 187.287 128.554 177.497L245.816 59.3451L197.403 59.3451L104.001 152.749C99.1448 157.644 92.9576 160.977 86.2218 162.327C79.4861 163.678 72.5043 162.985 66.1593 160.336C59.8144 157.687 54.3913 153.201 50.5758 147.445C46.7603 141.689 44.7238 134.922 44.7238 128C44.7238 121.078 46.7603 114.311 50.5758 108.555C54.3913 102.799 59.8145 98.3132 66.1594 95.6641C72.5043 93.015 79.486 92.322 86.2218 93.6725C92.9575 95.023 99.1447 98.3564 104.001 103.251L128.554 78.5026C118.842 68.713 106.467 62.046 92.996 59.3451C79.5245 56.6441 65.5609 58.0303 52.871 63.3284C40.1812 68.6266 29.335 77.5986 21.704 89.11C14.073 100.621 10 114.155 10 128C10 141.845 14.073 155.378 21.704 166.89C29.335 178.401 40.1812 187.373 52.8711 192.672C65.561 197.97 79.5246 199.356 92.9961 196.655Z" fill="white"/>
<path d="M246 196.712L197.587 196.712L165.507 164.747L190.613 140.905L246 196.712Z" fill="white"/>
<defs>
<linearGradient id="paint0_linear_3_120" x1="0" y1="0" x2="279.77" y2="29.339" gradientUnits="userSpaceOnUse">
<stop stop-color="#EAAC23"/>
<stop offset="1" stop-color="#F40274"/>
</linearGradient>
</defs>
</svg>
